<?xml version="1.0" encoding="utf-8"?>
<!-- Generator: Adobe Illustrator 23.0.4, SVG Export Plug-In . SVG Version: 6.00 Build 0)  -->
<svg width="120" height="28" version="1.1" id="Layer_1" xmlns="http://www.w3.org/2000/svg" xmlns:xlink="http://www.w3.org/1999/xlink" x="0px" y="0px"
	 viewBox="0 0 120 28" style="enable-background:new 0 0 120 28;" xml:space="preserve">
<style type="text/css">
	.st0{fill:#F09428;stroke:#F09428;stroke-width:0.5;stroke-miterlimit:10;}
</style>
<title>brand</title>
<path class="st0" d="M1.2,14.1c0-4.6,2.6-8.7,8.2-8.7c3.2-0.1,6.2,1.8,7.4,4.9l-2.8,1.1c-0.6-2.2-2.4-3.1-4.6-3.1
	c-3.6,0-5.1,2.6-5.1,5.7c0,3.4,1.6,5.9,5.2,5.9c2.1,0.2,4-1.1,4.6-3.1l2.8,1.1c-1.2,3-4.2,5-7.4,4.9C3.8,22.8,1.2,18.8,1.2,14.1z"/>
<path class="st0" d="M19.1,10.6h2.8v2c0.5-1.3,1.8-2.3,3.2-2.2c0.8,0,1.6,0.3,2.2,0.9L26,13.6c-0.4-0.3-0.8-0.4-1.3-0.4
	c-1.4,0-2.8,1.3-2.8,4.3v5.1h-2.8V10.6z"/>
<path class="st0" d="M33.3,22.2l-4.7-11.6h3.2l3,8.3l3.1-8.3h3.3l-6.8,16.9h-3.2L33.3,22.2z"/>
<path class="st0" d="M43,10.6h3v1.2c0.9-1,2.1-1.5,3.4-1.4c3.3,0,5.1,2.9,5.1,6.2s-1.8,6.2-5.2,6.2c-1.3,0.1-2.5-0.5-3.4-1.4v6.1h-3
	V10.6z M51.6,16.6c0-2-0.9-3.5-2.9-3.5s-2.9,1.5-2.9,3.5s0.9,3.6,2.9,3.6S51.6,18.6,51.6,16.6L51.6,16.6z"/>
<path class="st0" d="M57.7,19.3v-6.2h-1.9v-2.5h2v-3l2.9-2.1v5.1h3V13h-3v5.7c0,1.1,0.6,1.5,1.3,1.5c0.6,0,1.2-0.2,1.7-0.4v2.6
	c-0.7,0.2-1.4,0.4-2.2,0.4C59.1,22.8,57.7,21.4,57.7,19.3z"/>
<path class="st0" d="M65.4,16.6c-0.1-3.4,2.5-6.2,5.9-6.4c3.4-0.1,6.2,2.5,6.4,5.9c0,0.2,0,0.3,0,0.5c0.1,3.4-2.5,6.2-5.9,6.4
	c-3.4,0.1-6.2-2.5-6.4-5.9C65.3,16.9,65.3,16.7,65.4,16.6z M74.6,16.6c0-2-0.9-3.7-3.1-3.7s-3.1,1.7-3.1,3.7s0.9,3.7,3.1,3.7
	S74.6,18.5,74.6,16.6z"/>
<path class="st0" d="M84.7,5.7H90c3.4,0,6,1.8,6,5s-2.5,4.9-6,4.9h-2.3v7h-3L84.7,5.7z M90,12.7c2.1,0,3-0.7,3-2.1s-0.9-2.2-3-2.2
	h-2.3v4.2H90z"/>
<path class="st0" d="M98.1,10.6h2.8v2c0.5-1.4,1.8-2.3,3.2-2.3c0.8,0,1.6,0.3,2.2,0.9l-1.3,2.4c-0.4-0.3-0.8-0.4-1.3-0.4
	c-1.4,0-2.8,1.3-2.8,4.3v5h-2.8V10.6z"/>
<path class="st0" d="M106.5,16.6c-0.1-3.4,2.5-6.2,5.9-6.4c3.4-0.1,6.2,2.5,6.4,5.9c0,0.2,0,0.3,0,0.5c0.1,3.4-2.5,6.2-5.9,6.4
	c-3.4,0.1-6.2-2.5-6.4-5.9C106.5,16.9,106.5,16.7,106.5,16.6z M115.7,16.6c0-2-0.9-3.7-3.1-3.7s-3.1,1.7-3.1,3.7s0.9,3.7,3.1,3.7
	S115.7,18.5,115.7,16.6z"/>
</svg>
